<?xml version="1.0" encoding="utf-8"?>
<!-- Generator: Adobe Illustrator 24.1.0, SVG Export Plug-In . SVG Version: 6.00 Build 0)  -->
<svg version="1.1" id="Layer_1" xmlns="http://www.w3.org/2000/svg" xmlns:xlink="http://www.w3.org/1999/xlink" x="0px" y="0px"
	 viewBox="0 0 1336 693" style="enable-background:new 0 0 1336 693;" xml:space="preserve">
<style type="text/css">
	.st0{fill:none;}
	.st1{fill:#FFFFFF;}
	.st2{font-family:'P22JohnstonUnderground';}
	.st3{font-size:208.3333px;}
	.st4{fill:none;stroke:#000000;stroke-width:2;}
</style>
<g>
	<path d="M1293.68,455.47c0,0,18.95-54.84,13.59-71.9c-5.46-17.19-30.33-42.39-27.32-75.87c3.02-33.57,29.76-110.2,22.81-142.87
		c-6.86-32.75-41.6-128.93-131.38-143.45c-89.66-14.51-154.06,9.65-188.56,8.03c-34.24-1.53-40.49-27.53-78.6-27.2
		c-49.01,0.47-57.49,20.81-92.14,31.74c-25.42,8-105.1,7.89-105.1,7.89s-22.77-29.75-29.75-18.82
		c-6.93,10.93-15.75,38.69-15.75,38.69s-42.65,14.86-46.61,22.76c-3.95,7.99-9.39,20.87-9.39,20.87s-45.21,11.87-50.09,22.82
		c-5,10.88,19.75,36.59,27.78,45.5c7.91,8.93,100.03,10.93,114.65,21.72c14.62,10.8,44.53,21.21,78.39,22.76
		c43.43,2,61.67,92.59,72.58,186.66c-12.87,10.94-35.79,20.69-36.89,50.67h127.17c0,0,1.86-19.99,4.2-44.86
		c2.32-24.86,35.36-101.99,49.3-103.21c165.22-14.34,172.59,20.41,172.59,20.41c1.81,96.9,75.09,90.73,75.09,90.73
		s-18.77,10.13-19.04,36.93C1221.12,462.44,1293.68,455.47,1293.68,455.47z"/>
	<rect x="740.02" y="75" class="st0" width="544.79" height="150"/>
	<text transform="matrix(1 0 0 1 740.0215 213.3306)" class="st1 st2 st3">ORSO</text>
</g>
<g>
	<g>
		<path d="M1294.11,456.97c-0.02,0.04,20.17,24.95,15.17,33c-5.09,8.14-29.62,20.72-25.92,36.24c3.69,15.64,32.43,49.99,26.1,65.45
			c-6.24,15.39-39.65,62.56-131.71,74.29c-91.9,11.51-158.29,1.59-193.66,3.21c-35.15,1.56-41.57,14.66-80.78,15.23
			c-50.43,0.57-59.06-9.69-94.55-15.11c-26.04-3.86-107.83-4.4-107.83-4.51c0.01-0.01-23.85,15.24-30.86,9.44
			c-6.95-5.79-15.5-20.49-15.5-20.5c-0.01,0.05-43.43-8.71-47.31-13.04c-3.88-4.33-9.16-11.3-9.16-11.3
			c-0.01,0.05-45.94-7.75-50.63-13.84c-4.82-6.01,21.05-18.73,29.41-23.14c8.26-4.27,102-2.26,117.03-7.66
			c15.03-5.24,45.55-9.84,79.93-10c44.17-0.33,63.31-46.27,74.76-93.58c-12.85-5.87-35.75-11.56-36.6-26.91
			c42.39,1.52,84.79,2.7,127.2,3.54c0,0,1.85,10,4.21,22.43c2.28,12.52,35.66,51.05,49.8,51.53c167,6.11,174.02-12.18,173.99-11.72
			c0.56-46.28,74.07-44.43,74.09-44.55c0,0.01-19.01-4.38-19.72-17.05C1221.35,455.23,1294.1,457.09,1294.11,456.97z"/>
		<g>
			<path class="st1" d="M887.84,613.86c-0.02,3.62-1,7.16-2.93,10.63c-1.93,3.47-4.81,6.52-8.64,9.13c-5.93,4.16-13,7.67-21.22,10.5
				c-8.22,2.83-16.79,4.59-25.69,5.26c-4.1,0.32-8.24,0.48-12.41,0.48c-10.7,0-20.73-1.04-30.07-3.14
				c-9.34-2.1-17.65-5.23-24.91-9.37c-5.69-3.33-10.02-7.18-13-11.53c-2.98-4.36-4.42-8.88-4.3-13.57
				c0.13-5.56,2.22-10.62,6.26-15.17c2.84-3.2,6.54-6.1,11.12-8.69c4.57-2.59,9.86-4.81,15.86-6.66c6-1.85,12.28-3.23,18.84-4.13
				c6.56-0.91,13.38-1.31,20.48-1.22c6.68,0.16,13.04,0.71,19.09,1.67c6.05,0.96,11.89,2.32,17.52,4.1
				c5.63,1.77,10.66,3.88,15.09,6.31c4.43,2.43,8.08,5.07,10.96,7.91C885.22,601.45,887.88,607.28,887.84,613.86z M866.16,613.37
				c0.02-2.3-0.55-4.6-1.7-6.91c-1.15-2.31-2.93-4.51-5.33-6.6c-2.4-2.08-5.28-3.92-8.64-5.52c-4.88-2.23-10.2-3.96-15.98-5.19
				c-5.78-1.24-11.94-1.89-18.49-1.97c-3.38-0.04-6.48,0.06-9.32,0.31c-7.81,0.7-15.08,2.46-21.83,5.29
				c-6.75,2.83-11.58,6.1-14.49,9.82c-2.49,3.24-3.77,6.59-3.84,10.04c-0.15,7.28,4.25,13.48,13.23,18.52
				c4.53,2.5,9.94,4.44,16.23,5.8c6.29,1.36,12.91,2.05,19.85,2.06c6.18,0.01,12.22-0.52,18.13-1.59c4.1-0.72,8.03-1.79,11.8-3.21
				c3.76-1.41,7.11-3.06,10.04-4.93c2.93-1.87,5.1-3.74,6.5-5.59C864.85,620.41,866.13,616.97,866.16,613.37z"/>
			<path class="st1" d="M1007.15,586.06c-3.77,2.6-7.82,5.42-12.15,8.45c-4.33,3.03-8.59,5.96-12.79,8.78
				c-4.2,2.82-7.27,4.85-9.2,6.08c0,0.15,0,0.3,0,0.45c4.01,0.76,7.28,1.47,9.81,2.16c2.53,0.69,4.8,1.63,6.81,2.84
				c2.64,1.53,4.66,3.29,6.06,5.27c1.4,1.98,2.1,4.01,2.12,6.08c0.01,1.74-0.53,3.6-1.62,5.6c-2.54,4.23-6.7,7.44-12.48,9.61
				c-5.78,2.18-12.34,3.63-19.67,4.35c-7.33,0.72-16.09,1.16-26.3,1.31c-8.37,0.12-16.74,0.23-25.11,0.33
				c-0.52-0.03-1.04-0.06-1.56-0.08c0.08-22.73,0.16-45.46,0.24-68.19c0.14-0.2,0.28-0.41,0.41-0.61c6.3,0.01,12.6,0,18.91-0.01
				c0.21,0.14,0.41,0.27,0.62,0.41c-0.01,9.6-0.02,19.19-0.03,28.79c6.36-0.04,12.72-0.09,19.08-0.15
				c29.13-19.66,43.69-29.37,43.97-29.39c7.4-0.07,14.81-0.15,22.21-0.24c1.31-0.02,1.96,0.11,1.97,0.38
				C1014.68,580.87,1010.92,583.46,1007.15,586.06z M974.85,626.95c-0.01-2.46-1.79-4.57-5.32-6.34c-2.57-1.31-5.87-2.18-9.92-2.6
				c-4.05-0.42-8.64-0.61-13.76-0.55c-2.49,0.06-4.79,0.11-6.9,0.15c-2.11,0.04-4.69,0.07-7.73,0.1c-0.01,6.5-0.01,13-0.02,19.5
				c0.28,0.1,0.55,0.2,0.83,0.3c1.91-0.02,3.82-0.05,5.72-0.07c4.93-0.06,9.16-0.2,12.7-0.4c3.54-0.2,6.92-0.58,10.14-1.14
				c3.22-0.56,6.12-1.41,8.68-2.57c2.56-1.15,4.29-2.66,5.18-4.53C974.71,627.96,974.85,627.35,974.85,626.95z"/>
			<path class="st1" d="M1103.68,610.22c-3.53,1.82-7.42,3.37-11.69,4.65c-4.27,1.27-10.11,2.8-17.52,4.59
				c-7.42,1.78-11.37,2.73-11.85,2.84c-5.31,1.49-7.94,4.04-7.89,7.65c0.43,1.18,1.63,2.25,3.58,3.2c1.95,0.95,4.18,1.51,6.68,1.67
				c1.46,0.16,2.95,0.21,4.48,0.17c6.73-0.2,12.59-2.16,17.59-5.86c1.81,0.57,4.67,1.39,8.58,2.45c3.9,1.06,6.69,1.83,8.37,2.34
				c-1.36,1.39-3.38,2.79-6.06,4.19c-2.68,1.4-5.77,2.65-9.25,3.73c-3.49,1.08-6.79,1.86-9.91,2.32c-2.7,0.41-5.89,0.68-9.57,0.8
				c-12.15,0.38-22.29-1.7-30.4-6.24c-4.61-2.6-6.94-5.82-6.98-9.64c-0.02-1.7,0.48-3.37,1.5-5.02c1.15-2.12,3.67-4.09,7.56-5.9
				c3.89-1.81,8.42-3.44,13.59-4.88c3.17-0.9,7.34-1.98,12.51-3.25c5.17-1.27,9.38-2.4,12.65-3.41c3.26-1.01,6.34-2.25,9.21-3.74
				c3.08-1.59,4.6-3.64,4.55-6.13c-0.05-2.53-1.47-4.83-4.27-6.9c-1.89-1.4-4.48-2.46-7.77-3.18c-3.29-0.72-6.83-1.04-10.62-0.96
				c-1.03,0.02-2.58,0.12-4.65,0.29c-7.91,1.05-13.81,3.22-17.7,6.54c-0.34,0.27-0.63,0.55-0.87,0.84
				c-0.24,0.29-0.54,0.66-0.92,1.11c-0.38,0.46-0.8,0.89-1.28,1.29c-5.41-1.67-10.81-3.35-16.21-5.05c1.9-2.82,5.06-5.44,9.48-7.85
				c4.42-2.41,9.23-4.17,14.45-5.28c5.01-1.04,10.38-1.61,16.09-1.72c6.06-0.11,12.04,0.37,17.95,1.43
				c5.91,1.06,11.06,2.59,15.44,4.58c3.69,1.72,6.54,3.79,8.56,6.23c2.02,2.44,3.06,5.01,3.12,7.73c0.06,2.85-0.78,5.46-2.53,7.83
				C1109.87,606.21,1107.2,608.4,1103.68,610.22z"/>
			<path class="st1" d="M1274.6,603.68c0.14,3.36-0.67,6.7-2.44,10.02c-1.77,3.32-4.51,6.28-8.22,8.9
				c-5.73,4.15-12.64,7.75-20.72,10.77c-8.08,3.02-16.56,5.07-25.42,6.11c-4.09,0.49-8.21,0.84-12.37,1.04
				c-10.69,0.51-20.75,0.01-30.17-1.5c-9.42-1.52-17.86-4.03-25.31-7.55c-5.83-2.83-10.34-6.21-13.52-10.12
				c-3.18-3.92-4.82-8.06-4.92-12.43c-0.12-5.19,1.73-9.99,5.56-14.41c2.69-3.11,6.26-5.98,10.71-8.6
				c4.45-2.62,9.63-4.93,15.54-6.93c5.91-2,12.11-3.57,18.63-4.72c6.51-1.15,13.31-1.84,20.4-2.09c6.68-0.17,13.06,0.05,19.15,0.66
				c6.09,0.61,11.98,1.6,17.69,2.99c5.71,1.38,10.83,3.1,15.36,5.15c4.53,2.05,8.3,4.33,11.31,6.83
				C1271.42,592.27,1274.35,597.56,1274.6,603.68z M1252.92,604.25c-0.08-2.13-0.76-4.25-2.01-6.34c-1.26-2.1-3.13-4.05-5.62-5.88
				c-2.49-1.82-5.45-3.4-8.88-4.72c-4.97-1.84-10.37-3.2-16.2-4.08c-5.83-0.88-12.02-1.2-18.56-0.96c-3.38,0.12-6.47,0.36-9.29,0.72
				c-7.77,1.02-14.95,2.99-21.56,5.93c-6.61,2.94-11.29,6.21-14.02,9.81c-2.34,3.13-3.46,6.31-3.38,9.52
				c0.18,6.79,4.86,12.34,14.07,16.61c4.64,2.12,10.13,3.66,16.47,4.63c6.34,0.97,12.98,1.3,19.92,0.98
				c6.17-0.28,12.18-1.06,18.04-2.34c4.06-0.87,7.94-2.05,11.64-3.54c3.69-1.49,6.96-3.18,9.8-5.06c2.84-1.88,4.92-3.71,6.24-5.5
				C1251.93,610.86,1253.05,607.6,1252.92,604.25z"/>
		</g>
	</g>
</g>
<line class="st4" x1="543.42" y1="456.28" x2="1336" y2="456.28"/>
</svg>
