<?xml version="1.0" encoding="utf-8"?>
<!-- Generator: Adobe Illustrator 24.0.3, SVG Export Plug-In . SVG Version: 6.00 Build 0)  -->
<svg version="1.1" id="Layer_1" xmlns="http://www.w3.org/2000/svg" xmlns:xlink="http://www.w3.org/1999/xlink" x="0px" y="0px"
	 viewBox="0 0 1336 693" style="enable-background:new 0 0 1336 693;" xml:space="preserve">
<style type="text/css">
	.st0{fill:#FFFFFF;stroke:#FFFFFF;stroke-width:0.2745;}
	.st1{fill:#FFFFFF;stroke:#FFFFFF;stroke-width:0.2431;}
	.st2{fill:#FFFFFF;stroke:#0FFFFF;stroke-width:0.222;}
	.st3{fill:#FFFFFF;stroke:#0FFFFF;stroke-width:0.2121;}
	.st4{fill:#FFFFFF;stroke:#FFFFFF;stroke-width:0.1818;}
	.st5{fill:none;}
	.st6{font-family:'P22JohnstonUnderground';}
	.st7{font-size:315.7914px;}
	.st8{fill:none;stroke:#000000;stroke-width:2;}
</style>
<path d="M1293.68,455.47c0,0,18.95-54.84,13.59-71.9c-5.46-17.19-30.33-42.39-27.32-75.87c3.02-33.57,29.76-110.2,22.81-142.87
	c-6.86-32.75-41.6-128.93-131.38-143.45c-89.66-14.51-154.06,9.65-188.56,8.03c-34.24-1.53-40.49-27.53-78.6-27.2
	c-49.01,0.47-57.49,20.81-92.14,31.74c-25.42,8-105.1,7.89-105.1,7.89s-22.77-29.75-29.75-18.82
	c-6.93,10.93-15.75,38.69-15.75,38.69s-42.65,14.86-46.61,22.76c-3.95,7.99-9.39,20.87-9.39,20.87s-45.21,11.87-50.09,22.82
	c-5,10.88,19.75,36.59,27.78,45.5c7.91,8.93,100.03,10.93,114.65,21.72c14.62,10.8,44.53,21.21,78.39,22.76
	c43.43,2,61.67,92.59,72.58,186.66c-12.87,10.94-35.79,20.69-36.89,50.67h127.17c0,0,1.86-19.99,4.2-44.86
	c2.32-24.86,35.36-101.99,49.3-103.21c165.22-14.34,172.59,20.41,172.59,20.41c1.81,96.9,75.09,90.73,75.09,90.73
	s-18.77,10.13-19.04,36.93C1221.12,462.44,1293.68,455.47,1293.68,455.47z"/>
<polygon class="st0" points="1193.7,132.45 1197.45,153.55 1191.39,132.99 1180.7,151.57 1189.28,131.93 1169.15,139.29 
	1188.34,129.75 1168.19,122.45 1189.02,127.48 1178.27,108.94 1191,126.18 1194.69,105.07 1193.35,126.46 1209.75,112.66 
	1194.98,128.19 1216.42,128.15 1195.11,130.55 1211.56,144.3 "/>
<polygon class="st1" points="1178.91,244.66 1178.79,263.65 1176.82,244.76 1164.52,259.23 1175.15,243.5 1156.43,246.67 
	1174.69,241.45 1158.3,231.85 1175.64,239.59 1169.26,221.7 1177.58,238.77 1184.18,220.97 1179.58,239.39 1196.09,230.01 
	1180.72,241.15 1199.39,244.57 1180.45,243.24 1192.56,257.86 "/>
<polygon class="st1" points="878.91,123.67 877.28,142.59 876.81,123.61 863.4,137.05 875.24,122.21 856.33,123.89 874.94,120.13 
	859.38,109.26 876.05,118.35 871.11,100.02 878.04,117.69 886.04,100.47 879.98,118.47 897.18,110.42 880.98,120.32 899.32,125.21 
	880.55,122.37 891.46,137.91 "/>
<polygon class="st1" points="661.46,127.12 661.77,146.1 659.36,127.27 647.4,142.01 657.66,126.04 639.03,129.65 657.15,124.01 
	640.56,114.79 658.07,122.12 651.28,104.39 659.98,121.26 666.18,103.32 662,121.84 678.28,112.07 663.18,123.57 681.92,126.56 
	662.96,125.66 675.41,140 "/>
<polygon class="st2" points="792.75,86.33 792.06,103.66 790.83,86.36 779.17,99.19 789.35,85.16 772.17,87.49 788.99,83.27 
	774.33,74.02 789.92,81.6 784.64,65.09 791.71,80.92 798.28,64.88 793.52,81.55 808.86,73.48 794.5,83.19 811.44,86.87 794.2,85.08 
	804.81,98.79 "/>
<polygon class="st3" points="1010.85,256.03 1011.69,272.57 1009.03,256.22 999.04,269.44 1007.51,255.2 991.36,258.91 1007,253.44 
	992.25,245.9 1007.74,251.77 1001.29,236.51 1009.38,250.96 1014.25,235.12 1011.16,251.4 1025.07,242.4 1012.24,252.88 
	1028.68,254.92 1012.12,254.71 1023.4,266.84 "/>
<polygon class="st4" points="983,161.46 980.99,175.52 981.43,161.33 970.86,170.81 980.32,160.22 966.13,160.69 980.19,158.65 
	969.01,149.89 981.08,157.37 978.16,143.47 982.6,156.96 989.29,144.43 984.02,157.62 997.2,152.33 984.69,159.04 998.18,163.46 
	984.28,160.56 991.78,172.62 "/>
<rect x="0.52" y="228.2" class="st5" width="825.79" height="227.37"/>
<text transform="matrix(1 0 0 1 0.5202 437.8779)" class="st6 st7">ORSO</text>
<path d="M1221.21,456.36c0.27,13.91,19.04,19.17,19.04,19.17s-73.28-3.2-75.09,47.09c0,0-7.37,18.04-172.59,10.59
	c-13.94-0.63-46.97-40.66-49.3-53.56c-2.34-12.91-4.2-23.28-4.2-23.28H811.91c1.11,15.56,24.02,20.62,36.89,26.29
	c-10.91,48.82-29.15,95.83-72.58,96.87c-33.86,0.8-63.77,6.21-78.39,11.81c-14.63,5.6-106.74,6.64-114.65,11.27
	c-8.03,4.62-32.78,17.97-27.78,23.61c4.88,5.68,50.09,11.84,50.09,11.84s5.44,6.68,9.39,10.83c3.96,4.1,46.61,11.81,46.61,11.81
	s8.82,14.41,15.75,20.08c6.99,5.68,29.75-9.76,29.75-9.76s79.68-0.06,105.1,4.09c34.65,5.67,43.12,16.23,92.14,16.47
	c38.11,0.17,44.36-13.32,78.6-14.12c34.5-0.84,98.9,11.7,188.56,4.17c89.78-7.53,124.52-57.45,131.38-74.45
	c6.95-16.95-19.79-56.72-22.81-74.14c-3.01-17.37,21.86-30.45,27.32-39.37c5.36-8.86-13.59-37.32-13.59-37.32
	S1221.12,452.74,1221.21,456.36z"/>
<polygon class="st0" points="1193.7,623.97 1197.45,613.01 1191.39,623.68 1180.7,614.04 1189.28,624.24 1169.15,620.41 
	1188.34,625.37 1168.19,629.15 1189.02,626.54 1178.27,636.17 1191,627.22 1194.69,638.18 1193.35,627.07 1209.75,634.24 
	1194.98,626.18 1216.42,626.2 1195.11,624.95 1211.56,617.81 "/>
<polygon class="st1" points="1178.91,565.73 1178.79,555.88 1176.82,565.68 1164.52,558.17 1175.15,566.33 1156.43,564.68 
	1174.69,567.4 1158.3,572.38 1175.64,568.36 1169.26,577.65 1177.58,568.79 1184.18,578.02 1179.58,568.46 1196.09,573.34 
	1180.72,567.55 1199.39,565.78 1180.45,566.47 1192.56,558.88 "/>
<polygon class="st1" points="878.91,628.52 877.28,618.7 876.81,628.55 863.4,621.58 875.24,629.28 856.33,628.41 874.94,630.36 
	859.38,636 876.05,631.28 871.11,640.8 878.04,631.62 886.04,640.56 879.98,631.22 897.18,635.4 880.98,630.26 899.32,627.72 
	880.55,629.2 891.46,621.13 "/>
<polygon class="st1" points="661.46,626.73 661.77,616.88 659.36,626.65 647.4,619 657.66,627.29 639.03,625.42 657.15,628.35 
	640.56,633.13 658.07,629.32 651.28,638.53 659.98,629.77 666.18,639.09 662,629.47 678.28,634.54 663.18,628.57 681.92,627.02 
	662.96,627.49 675.41,620.05 "/>
<polygon class="st2" points="792.75,647.9 792.06,638.91 790.83,647.88 779.17,641.23 789.35,648.51 772.17,647.3 788.99,649.49 
	774.33,654.29 789.92,650.35 784.64,658.92 791.71,650.71 798.28,659.04 793.52,650.38 808.86,654.57 794.5,649.53 811.44,647.62 
	794.2,648.55 804.81,641.43 "/>
<polygon class="st3" points="1010.85,559.83 1011.69,551.24 1009.03,559.73 999.04,552.87 1007.51,560.26 991.36,558.33 
	1007,561.17 992.25,565.09 1007.74,562.04 1001.29,569.96 1009.38,562.46 1014.25,570.68 1011.16,562.23 1025.07,566.91 
	1012.24,561.46 1028.68,560.4 1012.12,560.51 1023.4,554.22 "/>
<polygon class="st4" points="983,608.91 980.99,601.61 981.43,608.98 970.86,604.06 980.32,609.55 966.13,609.31 980.19,610.37 
	969.01,614.91 981.08,611.03 978.16,618.24 982.6,611.24 989.29,617.75 984.02,610.9 997.2,613.65 984.69,610.16 998.18,607.87 
	984.28,609.38 991.78,603.12 "/>
<line class="st8" x1="0.52" y1="456.28" x2="1336.32" y2="455.57"/>
</svg>
